<svg xmlns="http://www.w3.org/2000/svg" width="1500" height="680" viewBox="0 0 1500 680">
  <rect width="100%" height="100%" fill="white"/>
  <text x="750.0" y="30" text-anchor="middle" font-family="Arial" font-size="24" fill="#111">Autoresearch Progress: 2 Experiments, 2 Kept Improvements</text>
  <g><line x1="92.0" y1="58" x2="92.0" y2="594" stroke="#e5e7eb" stroke-width="1"/><line x1="676.0" y1="58" x2="676.0" y2="594" stroke="#e5e7eb" stroke-width="1"/><line x1="1260.0" y1="58" x2="1260.0" y2="594" stroke="#e5e7eb" stroke-width="1"/><line x1="92" y1="587.7" x2="1260" y2="587.7" stroke="#e5e7eb" stroke-width="1"/><line x1="92" y1="500.9" x2="1260" y2="500.9" stroke="#e5e7eb" stroke-width="1"/><line x1="92" y1="414.1" x2="1260" y2="414.1" stroke="#e5e7eb" stroke-width="1"/><line x1="92" y1="327.3" x2="1260" y2="327.3" stroke="#e5e7eb" stroke-width="1"/><line x1="92" y1="240.5" x2="1260" y2="240.5" stroke="#e5e7eb" stroke-width="1"/><line x1="92" y1="153.7" x2="1260" y2="153.7" stroke="#e5e7eb" stroke-width="1"/><line x1="92" y1="66.9" x2="1260" y2="66.9" stroke="#e5e7eb" stroke-width="1"/></g>
  <line x1="92" y1="594" x2="1260" y2="594" stroke="#222" stroke-width="1.2"/>
  <line x1="92" y1="58" x2="92" y2="594" stroke="#222" stroke-width="1.2"/>
  <text x="92.0" y="622" text-anchor="middle" font-family="Arial" font-size="16" fill="#222">0</text>
<text x="676.0" y="622" text-anchor="middle" font-family="Arial" font-size="16" fill="#222">1</text>
<text x="1260.0" y="622" text-anchor="middle" font-family="Arial" font-size="16" fill="#222">2</text>
  <text x="80" y="592.7" text-anchor="end" font-family="Arial" font-size="16" fill="#222">6.000</text>
<text x="80" y="505.9" text-anchor="end" font-family="Arial" font-size="16" fill="#222">7.000</text>
<text x="80" y="419.1" text-anchor="end" font-family="Arial" font-size="16" fill="#222">8.000</text>
<text x="80" y="332.3" text-anchor="end" font-family="Arial" font-size="16" fill="#222">9.000</text>
<text x="80" y="245.5" text-anchor="end" font-family="Arial" font-size="16" fill="#222">10.0</text>
<text x="80" y="158.7" text-anchor="end" font-family="Arial" font-size="16" fill="#222">11.0</text>
<text x="80" y="71.9" text-anchor="end" font-family="Arial" font-size="16" fill="#222">12.0</text>
  <text x="750.0" y="656" text-anchor="middle" font-family="Arial" font-size="20" fill="#111">Experiment #</text>
  <text x="24" y="326.0" text-anchor="middle" transform="rotate(-90 24 326.0)" font-family="Arial" font-size="19" fill="#111">mean_wall_clock_seconds (lower is better)</text>
  <g></g>
  <path d="M 92.0 95.0 L 676.0 95.0 L 676.0 321.4 L 1260.0 321.4 L 1260.0 557.0" fill="none" stroke="#60c786" stroke-width="3"/>
  <g><circle cx="92.0" cy="95.0" r="5.2" fill="#2ecc71" fill-opacity="1" stroke="#166534" stroke-width="1.3"><title>#0 baseline: 11.6767</title></circle><circle cx="676.0" cy="321.4" r="5.2" fill="#2ecc71" fill-opacity="1" stroke="#166534" stroke-width="1.3"><title>#1 cycle 1: increase check-all worker default to 12: 9.06829 session=session-20260630-061324-b2daabb2</title></circle><circle cx="1260.0" cy="557.0" r="5.2" fill="#2ecc71" fill-opacity="1" stroke="#166534" stroke-width="1.3"><title>#2 cycle 2: try check-all worker default 10: 6.35363 session=session-20260630-061324-b2daabb2</title></circle></g>
  <g><text x="102.0" y="85.0" text-anchor="start" transform="rotate(-28 102.0 85.0)" font-family="Arial" font-size="14" fill="#2f8f55" fill-opacity="1">baseline</text><text x="686.0" y="311.4" text-anchor="start" transform="rotate(-28 686.0 311.4)" font-family="Arial" font-size="14" fill="#2f8f55" fill-opacity="1">cycle 1: increase check-all worker default to 12</text><text x="1250.0" y="547.0" text-anchor="end" transform="rotate(-28 1250.0 547.0)" font-family="Arial" font-size="14" fill="#2f8f55" fill-opacity="1">cycle 2: try check-all worker default 10</text></g>
  <g font-family="Arial" font-size="16" fill="#222">
    <rect x="1284" y="58" width="190" height="82" fill="white" fill-opacity="0.96" stroke="#d1d5db"/>
    <circle cx="1308" cy="82" r="3.2" fill="#bdbdbd" fill-opacity="0.45" stroke="#bdbdbd" stroke-opacity="0.45"/>
    <text x="1332" y="87">Discarded</text>
    <circle cx="1308" cy="107" r="5.2" fill="#2ecc71" stroke="#166534" stroke-width="1.3"/>
    <text x="1332" y="112">Kept</text>
    <line x1="1298" y1="130" x2="1324" y2="130" stroke="#60c786" stroke-width="3"/>
    <text x="1332" y="135">Running best</text>
  </g>
</svg>
