<svg xmlns="http://www.w3.org/2000/svg" width="1500" height="680" viewBox="0 0 1500 680">
  <rect width="100%" height="100%" fill="white"/>
  <text x="750.0" y="30" text-anchor="middle" font-family="Arial" font-size="24" fill="#111">Autoresearch Progress: 8 Experiments, 4 Kept Improvements</text>
  <g><line x1="92.0" y1="58" x2="92.0" y2="594" stroke="#e5e7eb" stroke-width="1"/><line x1="238.0" y1="58" x2="238.0" y2="594" stroke="#e5e7eb" stroke-width="1"/><line x1="384.0" y1="58" x2="384.0" y2="594" stroke="#e5e7eb" stroke-width="1"/><line x1="530.0" y1="58" x2="530.0" y2="594" stroke="#e5e7eb" stroke-width="1"/><line x1="676.0" y1="58" x2="676.0" y2="594" stroke="#e5e7eb" stroke-width="1"/><line x1="822.0" y1="58" x2="822.0" y2="594" stroke="#e5e7eb" stroke-width="1"/><line x1="968.0" y1="58" x2="968.0" y2="594" stroke="#e5e7eb" stroke-width="1"/><line x1="1114.0" y1="58" x2="1114.0" y2="594" stroke="#e5e7eb" stroke-width="1"/><line x1="1260.0" y1="58" x2="1260.0" y2="594" stroke="#e5e7eb" stroke-width="1"/><line x1="92" y1="591.7" x2="1260" y2="591.7" stroke="#e5e7eb" stroke-width="1"/><line x1="92" y1="517.3" x2="1260" y2="517.3" stroke="#e5e7eb" stroke-width="1"/><line x1="92" y1="442.9" x2="1260" y2="442.9" stroke="#e5e7eb" stroke-width="1"/><line x1="92" y1="368.5" x2="1260" y2="368.5" stroke="#e5e7eb" stroke-width="1"/><line x1="92" y1="294.1" x2="1260" y2="294.1" stroke="#e5e7eb" stroke-width="1"/><line x1="92" y1="219.7" x2="1260" y2="219.7" stroke="#e5e7eb" stroke-width="1"/><line x1="92" y1="145.3" x2="1260" y2="145.3" stroke="#e5e7eb" stroke-width="1"/><line x1="92" y1="70.9" x2="1260" y2="70.9" stroke="#e5e7eb" stroke-width="1"/></g>
  <line x1="92" y1="594" x2="1260" y2="594" stroke="#222" stroke-width="1.2"/>
  <line x1="92" y1="58" x2="92" y2="594" stroke="#222" stroke-width="1.2"/>
  <text x="92.0" y="622" text-anchor="middle" font-family="Arial" font-size="16" fill="#222">0</text>
<text x="238.0" y="622" text-anchor="middle" font-family="Arial" font-size="16" fill="#222">1</text>
<text x="384.0" y="622" text-anchor="middle" font-family="Arial" font-size="16" fill="#222">2</text>
<text x="530.0" y="622" text-anchor="middle" font-family="Arial" font-size="16" fill="#222">3</text>
<text x="676.0" y="622" text-anchor="middle" font-family="Arial" font-size="16" fill="#222">4</text>
<text x="822.0" y="622" text-anchor="middle" font-family="Arial" font-size="16" fill="#222">5</text>
<text x="968.0" y="622" text-anchor="middle" font-family="Arial" font-size="16" fill="#222">6</text>
<text x="1114.0" y="622" text-anchor="middle" font-family="Arial" font-size="16" fill="#222">7</text>
<text x="1260.0" y="622" text-anchor="middle" font-family="Arial" font-size="16" fill="#222">8</text>
  <text x="80" y="596.7" text-anchor="end" font-family="Arial" font-size="16" fill="#222">5.000</text>
<text x="80" y="522.3" text-anchor="end" font-family="Arial" font-size="16" fill="#222">6.000</text>
<text x="80" y="447.9" text-anchor="end" font-family="Arial" font-size="16" fill="#222">7.000</text>
<text x="80" y="373.5" text-anchor="end" font-family="Arial" font-size="16" fill="#222">8.000</text>
<text x="80" y="299.1" text-anchor="end" font-family="Arial" font-size="16" fill="#222">9.000</text>
<text x="80" y="224.7" text-anchor="end" font-family="Arial" font-size="16" fill="#222">10.0</text>
<text x="80" y="150.3" text-anchor="end" font-family="Arial" font-size="16" fill="#222">11.0</text>
<text x="80" y="75.9" text-anchor="end" font-family="Arial" font-size="16" fill="#222">12.0</text>
  <text x="750.0" y="656" text-anchor="middle" font-family="Arial" font-size="20" fill="#111">Experiment #</text>
  <text x="24" y="326.0" text-anchor="middle" transform="rotate(-90 24 326.0)" font-family="Arial" font-size="19" fill="#111">mean_wall_clock_seconds (lower is better)</text>
  <g><circle cx="676.0" cy="353.4" r="3.2" fill="#bdbdbd" fill-opacity="0.45" stroke="#bdbdbd" stroke-opacity="0.45"><title>#4 cycle 4: try check-all worker default 6: 8.20316 session=session-20260630-061324-b2daabb2</title></circle><circle cx="822.0" cy="274.4" r="3.2" fill="#bdbdbd" fill-opacity="0.45" stroke="#bdbdbd" stroke-opacity="0.45"><title>#5 cycle 5: try check-all worker default 9: 9.26535 session=session-20260630-061324-b2daabb2</title></circle><circle cx="968.0" cy="386.5" r="3.2" fill="#bdbdbd" fill-opacity="0.45" stroke="#bdbdbd" stroke-opacity="0.45"><title>#6 cycle 6: stop seed-sorted pagination below min seeders: 7.75804 session=session-20260630-065034-aaa6b660</title></circle><circle cx="1114.0" cy="438.8" r="3.2" fill="#bdbdbd" fill-opacity="0.45" stroke="#bdbdbd" stroke-opacity="0.45"><title>#7 cycle 7: reuse check-all worker database connections: 7.05544 session=session-20260630-065034-aaa6b660</title></circle></g>
  <path d="M 92.0 95.0 L 238.0 95.0 L 238.0 289.0 L 384.0 289.0 L 384.0 491.0 L 530.0 491.0 L 530.0 510.9 L 676.0 510.9 L 676.0 510.9 L 822.0 510.9 L 822.0 510.9 L 968.0 510.9 L 968.0 510.9 L 1114.0 510.9 L 1114.0 510.9 L 1260.0 510.9 L 1260.0 557.0" fill="none" stroke="#60c786" stroke-width="3"/>
  <g><circle cx="92.0" cy="95.0" r="5.2" fill="#2ecc71" fill-opacity="1" stroke="#166534" stroke-width="1.3"><title>#0 baseline: 11.6767</title></circle><circle cx="238.0" cy="289.0" r="5.2" fill="#2ecc71" fill-opacity="0.65" stroke="#166534" stroke-width="1.3"><title>#1 cycle 1: increase check-all worker default to 12: 9.06829 session=session-20260630-061324-b2daabb2</title></circle><circle cx="384.0" cy="491.0" r="5.2" fill="#2ecc71" fill-opacity="0.65" stroke="#166534" stroke-width="1.3"><title>#2 cycle 2: try check-all worker default 10: 6.35363 session=session-20260630-061324-b2daabb2</title></circle><circle cx="530.0" cy="510.9" r="5.2" fill="#2ecc71" fill-opacity="0.65" stroke="#166534" stroke-width="1.3"><title>#3 cycle 3: try check-all worker default 8: 6.0859 session=session-20260630-061324-b2daabb2</title></circle><circle cx="1260.0" cy="557.0" r="5.2" fill="#2ecc71" fill-opacity="1" stroke="#166534" stroke-width="1.3"><title>#8 cycle 8: reuse loaded item rows during check all: 5.4655 session=session-20260630-065034-aaa6b660</title></circle></g>
  <g><text x="102.0" y="85.0" text-anchor="start" transform="rotate(-28 102.0 85.0)" font-family="Arial" font-size="14" fill="#2f8f55" fill-opacity="1">baseline</text><text x="248.0" y="279.0" text-anchor="start" transform="rotate(-28 248.0 279.0)" font-family="Arial" font-size="14" fill="#2f8f55" fill-opacity="0.65">cycle 1: increase check-all worker default to 12</text><text x="394.0" y="481.0" text-anchor="start" transform="rotate(-28 394.0 481.0)" font-family="Arial" font-size="14" fill="#2f8f55" fill-opacity="0.65">cycle 2: try check-all worker default 10</text><text x="540.0" y="500.9" text-anchor="start" transform="rotate(-28 540.0 500.9)" font-family="Arial" font-size="14" fill="#2f8f55" fill-opacity="0.65">cycle 3: try check-all worker default 8</text><text x="1250.0" y="547.0" text-anchor="end" transform="rotate(-28 1250.0 547.0)" font-family="Arial" font-size="14" fill="#2f8f55" fill-opacity="1">cycle 8: reuse loaded item rows during check all</text></g>
  <g font-family="Arial" font-size="16" fill="#222">
    <rect x="1284" y="58" width="190" height="82" fill="white" fill-opacity="0.96" stroke="#d1d5db"/>
    <circle cx="1308" cy="82" r="3.2" fill="#bdbdbd" fill-opacity="0.45" stroke="#bdbdbd" stroke-opacity="0.45"/>
    <text x="1332" y="87">Discarded</text>
    <circle cx="1308" cy="107" r="5.2" fill="#2ecc71" stroke="#166534" stroke-width="1.3"/>
    <text x="1332" y="112">Kept</text>
    <line x1="1298" y1="130" x2="1324" y2="130" stroke="#60c786" stroke-width="3"/>
    <text x="1332" y="135">Running best</text>
  </g>
</svg>
